<?xml version="1.0" encoding="utf-8"?>
<!-- Generator: Adobe Illustrator 16.0.4, SVG Export Plug-In . SVG Version: 6.00 Build 0)  -->
<!DOCTYPE svg PUBLIC "-//W3C//DTD SVG 1.1//EN" "http://www.w3.org/Graphics/SVG/1.1/DTD/svg11.dtd">
<svg version="1.1" id="Layer_1" xmlns="http://www.w3.org/2000/svg" xmlns:xlink="http://www.w3.org/1999/xlink" x="0px" y="0px"
	 width="494px" height="277px" viewBox="0 0 494 277" enable-background="new 0 0 494 277" xml:space="preserve">
<g>
	<g id="Walry">
		<path fill-rule="evenodd" clip-rule="evenodd" fill="#B5D0ED" d="M453.814,195.447c2.18-3.947,4.213-7.986,6.583-11.815
			c2.289-3.699,3.705-8.743,9.042-9.01c3.256-0.162,6.657,0.72,9.843,1.649c2.322,0.678,4.511,2.036,6.533,3.42
			c0.888,0.606,1.479,1.968,1.754,3.097c2.268,9.291,2.702,18.751,2.828,28.288c0.122,9.303-0.853,18.514-1.381,27.764
			c-0.552,9.658-2.969,18.948-5.245,28.27c-0.984,4.032-4.079,5.933-8.122,5.247c-2.351-0.399-4.714-0.736-7.049-1.212
			c-3.23-0.658-3.23-3.558-3.247-5.776c-0.056-7.754,0.321-15.509,0.438-23.265c0.085-5.589,0.017-11.179,0.017-17.097
			c-0.937,0.386-1.828,0.532-2.426,1.032c-4.961,4.145-10.608,3.639-16.339,2.475c-2.318-0.471-4.604-1.106-6.895-1.707
			c-5.717-1.498-8.056-6.144-9.554-11.091c-1.413-4.672-2.042-9.581-2.797-13.3c-0.827,4.435-1.739,10.055-2.957,15.606
			c-0.938,4.281-3.81,7.306-7.734,10.044c2.464,3.063,4.982,6.042,7.328,9.151c2.29,3.033,4.404,6.199,6.592,9.31
			c0.153,0.219,0.221,0.521,0.413,0.688c5.159,4.492,1.866,9.778,1.287,14.755c-0.156,1.344-2.251,2.16-1.511,4.03
			c0.062,0.154-0.488,0.619-0.82,0.844c-0.548,0.369-1.148,0.661-1.728,0.985c0.073,0.35,0.146,0.699,0.218,1.05
			c-3.85-0.486-7.897-0.412-11.477-1.671c-2.099-0.738-3.502-3.556-5.132-5.51c-3.675-4.404-7.285-8.861-10.943-13.279
			c-1.075-1.298-2.222-2.536-3.594-4.097c-0.806,4.492-1.513,8.669-2.315,12.827c-0.474,2.456-0.667,5.111-1.798,7.246
			c-0.826,1.561-2.958,3.367-4.541,3.398c-3.58,0.07-7.295-0.506-10.739-1.538c-3.465-1.037-3.685-4.666-4.019-7.589
			c-1.111-9.738-2.137-19.495-2.822-29.271c-0.613-8.725-1.101-17.49-0.952-26.227c0.119-7.031,1.315-14.041,1.937-21.068
			c0.184-2.074-0.11-4.192,0.088-6.265c0.195-2.045,0.564-3.586,3.603-3.658c3.396-0.081,6.719-1.938,10.148-2.291
			c3.963-0.407,8.032-0.27,12.012,0.103c3.57,0.334,7.119,1.154,10.608,2.031c8.797,2.211,15.385,7.06,18.374,15.994
			c0.112,0.335,0.313,0.64,0.772,1.552c0.452-2.412,0.908-4.289,1.139-6.193c0.439-3.634,0.743-7.283,1.119-10.925
			c0.422-4.104,1.342-4.735,5.312-3.771c3.197,0.776,6.424,1.436,9.594,2.305c0.751,0.206,1.351,1.021,1.981,1.598
			c0.474,0.433,1.015,1.407,1.307,1.329c2.657-0.717,2.118,1.291,2.04,2.49C450.166,182.927,451.793,189.126,453.814,195.447z
			 M394.126,193.396c0.265,4.58,0.451,8.991,0.849,13.384c0.057,0.619,1.346,1.746,1.721,1.619c3.19-1.077,6.387-2.217,9.404-3.698
			c1.805-0.886,2.824-2.267,1.462-4.712C404.695,194.846,401.118,192.898,394.126,193.396z"/>
		<path fill-rule="evenodd" clip-rule="evenodd" fill="#B5D0ED" d="M369.984,259.493c1.006,2.449-0.871,5.451-4.313,6.291
			c-1.629,0.397-3.295,0.931-4.94,0.919c-7.834-0.052-15.669-0.196-23.497-0.49c-1.62-0.061-4.019-0.409-4.661-1.471
			c-1.798-2.968-3.447-6.267-4.088-9.638c-1.169-6.137-1.696-12.408-2.234-18.645c-0.296-3.427,0.008-6.9-0.092-10.35
			c-0.223-7.692-0.624-15.382-0.773-23.075c-0.144-7.396-0.057-14.796-0.087-22.194c-0.002-0.598-0.157-1.193-0.195-1.792
			c-0.221-3.405,0.646-4.487,3.992-4.87c2.655-0.304,5.315-0.576,7.979-0.782c1.354-0.104,2.613,1.331,4.054,0.302
			c0.785,1.127,1.57,2.255,2.356,3.384c0.617-0.492,1.246-1.271,1.533-1.161c0.538,0.207,1.15,0.881,1.251,1.446
			c0.324,1.838,0.512,3.71,0.61,5.577c0.395,7.438,0.92,14.875,1.05,22.319c0.163,9.348,0.018,18.704-0.069,28.056
			c-0.021,2.211-0.34,4.42-0.521,6.623c5.808,0.376,11.26,0.521,16.65,1.17c2.441,0.294,4.795,1.514,7.11,2.498
			c0.473,0.2,0.85,1.23,0.835,1.869c-0.079,3.493-0.193,6.992-0.519,10.469C371.31,257.091,370.541,258.171,369.984,259.493z"/>
		<path fill-rule="evenodd" clip-rule="evenodd" fill="#B5D0ED" d="M266.907,186.422c-0.258,0.712-0.517,1.426-0.85,2.344
			c-0.743-3.404,0.095-7.109,2.117-10.453c0.66-1.092,0.908-3.197,1.643-3.344c2.992-0.596,6.1-0.623,9.166-0.834
			c0.774-0.053,1.556-0.008,1.676-0.008c1.523,0.55,2.552,0.919,3.579,1.292c0.323,0.117,0.757,0.149,0.947,0.381
			c1.688,2.049,4.499,2.296,6.27,4.596c5.533,7.184,8.052,15.729,11.71,23.771c3.903,8.583,6.669,17.663,12.316,25.492
			c3.593,4.982,5.596,11.124,9.26,16.038c3.277,4.396,1.515,8.863,1.84,13.275c0.148,2.021-0.985,4.135-1.621,6.515
			c-0.272-0.026-0.997-0.097-1.743-0.169c-0.057,0.133-0.215,0.329-0.168,0.417c1.14,2.163-0.928,2.15-1.805,2.153
			c-3.358,0.012-6.882,0.268-10.015-0.669c-1.857-0.556-3.103-3.169-4.607-4.871c-0.104-0.117-0.047-0.366-0.128-0.521
			c-1.876-3.543-4.143-5.87-8.844-5.42c-5.627,0.539-11.345,0.127-17.103,0.127c-0.808,2.85-1.646,6.08-2.661,9.256
			c-0.422,1.32-0.9,2.962-1.907,3.692c-2.759,1.999-5.983,2.64-9.392,1.799c-0.261-0.063-0.551-0.025-0.804-0.108
			c-1.62-0.535-3.928-0.635-4.665-1.759c-0.825-1.259-0.262-3.452-0.24-5.237c0.04-3.412,0.021-6.828,0.215-10.232
			c0.305-5.36,0.69-10.718,1.18-16.065c0.484-5.281,1.119-10.548,1.727-15.817c0.671-5.841,1.466-11.667,2.06-17.515
			c0.609-5.993,1.041-12.004,1.55-18.008C267.376,186.501,267.142,186.462,266.907,186.422z M286.142,225.028
			c-0.57,3.167-1.032,5.732-1.517,8.424c1.784,0,3.327,0,4.883,0C288.398,230.677,287.357,228.072,286.142,225.028z"/>
		<path fill-rule="evenodd" clip-rule="evenodd" fill="#B5D0ED" d="M212.164,208.081c2.12-4.063,3.813-7.607,5.814-10.968
			c0.595-0.997,2.012-2.012,3.126-2.101c3.628-0.289,7.301-0.312,10.933-0.074c0.95,0.062,1.813,1.443,2.784,2.277
			c1.781-1.795,2.093,0.037,2.654,1.386c0.532,1.275,1.107,2.533,1.779,4.063c1.087-8.385,2.058-16.504,3.217-24.596
			c0.83-5.8,1.954-11.556,2.87-17.344c0.643-4.058,1.113-8.142,1.734-12.203c0.772-5.036,2.81-6.626,7.853-6.266
			c1.596,0.114,3.215,0.087,4.78,0.366c1.005,0.18,1.937,0.789,2.887,1.238c0.29,0.137,0.609,0.606,0.779,0.545
			c3.129-1.135,3.234,1.586,3.247,3.074c0.077,8.925,0.066,17.859-0.312,26.774c-0.271,6.387-1.071,12.757-1.804,19.114
			c-0.63,5.462-1.634,10.882-2.228,16.347c-0.822,7.574-1.319,15.184-2.131,22.759c-1.206,11.263-2.29,22.539-5.766,33.44
			c-0.765,2.397-2.625,3.708-4.176,3.979c-4.341,0.758-9.065,1.701-12.989-1.232c-1.96-1.466-3.591-3.634-4.786-5.807
			c-2.294-4.168-4.172-8.565-6.147-12.709c-1.354,3.112-2.586,6.469-4.235,9.606c-2.256,4.292-7.353,6.101-12.355,5.502
			c-6.833-0.818-9.433-6.069-11.602-11.149c-3.065-7.176-5.421-14.688-7.62-22.19c-1.523-5.197-2.212-10.635-3.378-15.941
			c-1.454-6.615-2.887-13.241-4.571-19.801c-1.416-5.513-3.312-10.903-4.717-16.419c-0.486-1.905-0.095-4.026-0.171-6.046
			c-0.086-2.309,0.275-4.808-0.491-6.879c-1.267-3.425,0.227-6.753-0.395-10.093c-0.363-1.947-0.557-3.967-0.466-5.938
			c0.032-0.68,1.11-1.819,1.784-1.877c4.428-0.378,9.032,0.12,13.274-0.914c4.14-1.01,2.799,3.661,5.539,3.302
			c0.05-0.148,0.314-0.928,0.855-2.523c0.928,1.654,1.815,2.667,2.095,3.826c2.183,9.044,4.267,18.112,6.348,27.181
			c1.471,6.41,2.925,12.825,4.317,19.253C211.114,201.915,211.567,204.821,212.164,208.081z"/>
		<path fill-rule="evenodd" clip-rule="evenodd" fill="#FFFFFF" d="M394.126,193.396c6.992-0.497,10.569,1.45,13.436,6.593
			c1.362,2.445,0.343,3.826-1.462,4.712c-3.018,1.481-6.214,2.621-9.404,3.698c-0.375,0.127-1.664-1-1.721-1.619
			C394.577,202.387,394.391,197.976,394.126,193.396z"/>
		<path fill-rule="evenodd" clip-rule="evenodd" fill="#FFFFFF" d="M286.142,225.028c1.216,3.044,2.257,5.648,3.366,8.424
			c-1.556,0-3.099,0-4.883,0C285.109,230.761,285.571,228.195,286.142,225.028z"/>
	</g>
	<g id="Fed">
		<path fill-rule="evenodd" clip-rule="evenodd" fill="#B5D0ED" d="M110.378,246.887c-0.766-9.021-1.649-18.033-2.262-27.064
			c-0.487-7.183-0.688-14.386-0.933-21.583c-0.143-4.189-0.1-8.384-0.185-12.575c-0.092-4.487,2.25-6.951,6.736-7.137
			c2.461-0.102,4.914-0.411,7.375-0.52c7.024-0.307,12.868,3.121,18.864,6.051c3.636,1.776,6.8,4.128,9.827,6.872
			c5.965,5.409,9.523,12.087,11.625,19.671c1.668,6.018,1.425,12.13,0.686,18.269c-0.376,3.122-0.21,6.319-0.72,9.413
			c-0.763,4.634-1.46,9.36-2.994,13.768c-2.109,6.062-7.074,9.965-12.054,13.734c-5.016,3.798-10.694,4.26-16.666,3.889
			c-3.104-0.192-6.233,0.055-9.346-0.054c-2.075-0.073-4.382,0.057-6.126-0.818c-1.173-0.589-1.952-2.711-2.201-4.26
			c-0.934-5.837-1.579-11.719-2.332-17.585C109.908,246.934,110.144,246.91,110.378,246.887z M130.307,214.439
			c0,8.901,0,17.588,0,26.99c4.09-2.771,6.848-5.751,8.738-9.428c0.683-1.326,1.241-3.261,0.785-4.534
			C137.948,222.221,134.903,217.692,130.307,214.439z"/>
		<path fill-rule="evenodd" clip-rule="evenodd" fill="#B5D0ED" d="M85.693,204.32c-0.169,2.836-0.333,5.58-0.506,8.464
			c2.474,0.156,4.951,0.283,7.421,0.486c0.791,0.065,1.612,0.22,2.336,0.527c2.706,1.149,5.211,2.229,3.874,6.215
			c-0.854,2.548,0.85,5.725-1.663,8.025c-0.05,0.047-0.056,0.183-0.034,0.263c1.367,4.882-3.085,6.166-5.549,6.41
			c-5.857,0.579-7.803,3.294-7.292,8.67c0.024,0.258-0.076,0.528-0.149,0.985c4.698,0.334,9.422,0.384,14.042,1.102
			c2.861,0.445,5.631,1.764,8.296,3.002c0.712,0.331,1.338,1.862,1.237,2.755c-0.453,3.96-1.209,7.885-1.804,11.83
			c-0.269,1.784-3.389,4.592-5.929,4.894c-4.096,0.486-8.209,0.924-12.328,1.088c-4.166,0.166-8.346-0.056-12.52-0.052
			c-3.606,0.004-4.604-1.212-3.732-4.611c0.126-0.492,0.017-1.044,0.017-1.546c-3.728-0.489-4.741-1.828-4.851-6.677
			c-0.228-10.003-0.457-20.009-0.539-30.015c-0.092-11.201-0.098-22.405,0.029-33.605c0.035-3.084,0.513-6.194,1.102-9.232
			c0.433-2.232,1.807-3.481,4.43-3.74c8.36-0.825,16.612,0.016,24.832,1.24c2.391,0.356,4.702,1.494,6.93,2.531
			c0.588,0.274,1.089,1.541,1.017,2.292c-0.357,3.714-0.9,7.409-1.421,11.104c-0.172,1.216-0.063,2.877-0.797,3.529
			c-2.11,1.875-4.461,3.452-7.6,3.425C91.703,203.655,88.862,204.072,85.693,204.32z"/>
		<path fill-rule="evenodd" clip-rule="evenodd" fill="#B5D0ED" d="M15.063,153.405c2.055,0.263,3.486,0.459,4.921,0.624
			c1.551,0.18,2.779-0.131,3.514-1.78c0.299-0.672,1.161-1.455,1.844-1.537c5.275-0.632,10.56-1.232,15.858-1.588
			c5.207-0.35,10.433-0.473,15.652-0.56c4.81-0.08,9.444,0.787,13.401,3.715c0.847,0.627,1.677,1.983,1.637,2.969
			c-0.117,2.855-0.61,5.705-1.106,8.531c-0.176,1.004-0.751,1.947-1.208,2.889c-0.181,0.373-0.727,0.636-0.778,0.995
			c-0.536,3.771-1.426,5.038-5.15,5.859c-8.188,1.806-16.418,3.42-24.895,5.167c0.556,9.05,1.138,18.521,1.691,27.512
			c6.183,1.171,12.191,2.096,18.073,3.537c2.112,0.518,3.954,2.231,5.835,3.521c0.382,0.262,0.608,1.105,0.533,1.627
			c-0.479,3.289-0.954,6.587-1.656,9.833c-0.399,1.844-2.402,3.353-1.1,5.562c0.051,0.086-0.225,0.506-0.417,0.572
			c-3.027,1.042-5.698,2.936-9.312,2.38c-3.399-0.522-6.942-0.111-10.426-0.111c0.225,5.986,0.657,11.817,0.597,17.644
			c-0.054,5.174-0.222,10.387-2.565,15.264c-0.497,1.035,0.15,2.62,0.296,4.237c-1.05-0.588-1.846-1.034-2.852-1.597
			c0.07,1.089,0.128,1.985,0.218,3.381c-3.89-0.465-7.717-0.341-11.059-1.555c-1.834-0.667-3.459-3.403-4.11-5.532
			c-1.456-4.759-2.598-9.677-3.221-14.611c-1.054-8.354-1.565-16.777-2.385-25.163c-0.49-5.013-1.159-10.009-1.7-15.017
			c-0.379-3.517-0.698-7.04-1.006-10.564c-0.554-6.328-1.077-12.66-1.626-18.988c-0.028-0.324-0.348-0.697-0.257-0.948
			c2.58-7.072,1.12-14.489,1.895-21.711C14.358,156.488,14.747,155.041,15.063,153.405z"/>
		<path fill-rule="evenodd" clip-rule="evenodd" fill="#FFFFFF" d="M130.307,214.439c4.597,3.253,7.642,7.781,9.523,13.028
			c0.457,1.273-0.102,3.208-0.785,4.534c-1.891,3.677-4.648,6.656-8.738,9.428C130.307,232.027,130.307,223.341,130.307,214.439z"/>
	</g>
	<g id="Well">
		<path fill-rule="evenodd" clip-rule="evenodd" fill="#B5D0ED" d="M320.021,38.198c1.042,1.657,1.793,2.85,2.469,3.926
			c0.518-0.488,1.063-1.003,1.609-1.519c0.328,0.576,0.869,1.124,0.947,1.732c0.362,2.804,0.761,5.621,0.846,8.442
			c0.341,11.457,0.61,22.916,0.826,34.375c0.097,5.11,0.013,10.223-0.012,15.334c-0.005,0.896,0.024,1.834-0.22,2.679
			c-0.536,1.851,0.467,2.223,1.933,2.248c5,0.085,10.053-0.241,14.98,0.398c2.688,0.348,5.166,2.327,7.608,3.507
			c-0.918-23.378-1.776-47.02-1.177-71.263c5.546,0,10.574,0,15.539,0c0.806,1.156,1.628,2.336,2.336,3.353
			c0.557-0.464,1.09-0.909,1.623-1.354c0.343,0.651,0.902,1.275,0.991,1.96c0.441,3.404,1.024,6.819,1.072,10.238
			c0.236,16.765,0.325,33.531,0.438,50.297c0.008,1.23,0.171,1.937,1.691,1.995c4.938,0.19,9.892,0.349,14.793,0.917
			c2.159,0.25,4.349,1.212,6.259,2.312c1.419,0.817,2.132,2.136,1.577,4.328c-0.757,2.995-0.436,6.248-0.757,9.372
			c-0.178,1.737-0.722,3.436-1.232,5.751c-4.079,4.145-10.082,4.046-16.046,3.829c-6.658-0.242-13.311-0.68-19.96-1.109
			c-0.619-0.04-1.581-0.511-1.744-0.997c-1.575-4.687-4.98-8.771-4.645-14.104c0.049-0.784-0.446-1.602-0.737-2.559
			c-0.302,3.187-0.57,6.12-0.86,9.051c-0.173,1.738,0.104,3.754-0.699,5.133c-0.923,1.584-2.627,3.115-4.333,3.746
			c-2.458,0.908-5.218,1.307-7.857,1.349c-6.238,0.099-12.484-0.083-18.724-0.278c-1.926-0.061-3.854-0.46-5.752-0.846
			c-0.636-0.129-1.45-0.552-1.731-1.082c-3.318-6.228-5.065-12.811-5.145-19.953c-0.109-9.848-0.781-19.687-1.014-29.534
			c-0.291-12.328-0.403-24.66-0.537-36.991c-0.024-2.268,0.383-4.089,3.521-4.043C312.005,38.898,316.12,38.428,320.021,38.198z"/>
		<path fill-rule="evenodd" clip-rule="evenodd" fill="#B5D0ED" d="M268.952,123.683c-1.451-0.106-2.751-0.201-4.828-0.354
			c-0.428-4.415-1.165-8.955-1.252-13.506c-0.295-15.505-0.649-31.019-0.378-46.519c0.115-6.528-0.973-13.241,1.463-19.652
			c0.756-1.99,1.942-2.906,4.102-3.15c8.617-0.974,17.137,0.069,25.622,1.234c2.405,0.331,4.669,1.811,6.938,2.888
			c0.356,0.169,0.559,0.998,0.562,1.524c0.018,2.431,0.046,4.872-0.15,7.291c-0.096,1.174-0.662,2.313-1.045,3.458
			c-0.083,0.247-0.473,0.54-0.413,0.662c1.069,2.204-0.186,3.683-1.857,4.465c-2.344,1.097-4.885,1.83-7.406,2.461
			c-1.277,0.32-2.698,0.022-4.048,0.106c-1.313,0.082-2.619,0.295-4.103,0.472c0,2.722,0,5.5,0,8.528
			c4.839,0.305,10.134-0.383,13.836,4.042c-0.305,2.737-0.558,5.469-0.929,8.185c-0.285,2.087-0.304,4.368-1.224,6.161
			c-0.698,1.362-2.498,2.427-4.04,3.028c-2.551,0.993-5.288,1.506-8.234,2.299c-0.172,2.322-0.374,5.06-0.588,7.954
			c5.248,0.343,10.368,0.375,15.379,1.127c2.621,0.393,5.153,1.879,7.501,3.255c0.599,0.351,0.484,2.164,0.447,3.296
			c-0.067,2.061-0.254,4.125-0.535,6.167c-0.111,0.806-0.592,1.567-0.945,2.33c-0.146,0.316-0.526,0.561-0.58,0.875
			c-0.192,1.123,0.124,2.642-0.501,3.323c-2.094,2.284-4.821,3.685-7.992,3.794c-7.039,0.242-14.081,0.383-21.123,0.565
			c-0.182,0.005-0.364,0.007-0.545-0.004C267.449,129.702,266.395,127.786,268.952,123.683z"/>
		<path fill-rule="evenodd" clip-rule="evenodd" fill="#B5D0ED" d="M192.833,15.815c0.458-0.672,0.946-1.388,1.434-2.103
			c0.298,0.017,0.597,0.034,0.895,0.05c6.923,18.861,8.275,39.07,13.637,58.229c1.766-3.32,3.713-6.758,5.431-10.307
			c0.902-1.863,2.066-2.731,4.17-2.626c2.609,0.131,5.231-0.005,7.846,0.029c1.577,0.021,3.326-0.268,4.106,1.713
			c0.031,0.079,0.127,0.204,0.173,0.195c4.146-0.723,3.188,3.294,4.681,5.03c0.056,0.066,0.152,0.098,0.602,0.375
			c2.158-19.912,5.313-39.491,8.737-58.981c3.714-0.257,6.842-0.578,9.975-0.646c1.602-0.035,3.434-0.539,4.629,1.377
			c0.243,0.39,1.51,0.14,2.374,0.189c2.731,3.317,2.323,7.521,2.253,11.388c-0.145,7.921-0.689,15.852-1.475,23.738
			c-0.813,8.179-2.162,16.303-3.165,24.464c-0.503,4.094-0.693,8.226-1.135,12.329c-1.189,11.058-2.527,22.1-3.624,33.167
			c-0.548,5.531-1.29,10.946-3.396,16.163c-1.179,2.921-3.549,5.203-6.799,5.289c-2.569,0.068-5.371,0.536-7.651-0.305
			c-2.338-0.862-4.796-2.712-6.093-4.813c-2.99-4.848-5.308-10.11-7.855-15.119c-1.038,2.452-2.036,5.277-3.39,7.921
			c-3.487,6.808-7.519,7.175-13.715,6.805c-5.825-0.348-8.015-5.087-10.086-9.019c-5.051-9.591-7.461-20.148-9.717-30.732
			c-2.854-13.386-5.236-26.902-9.899-39.85c-0.924-2.567-1.551-5.244-2.243-7.889c-0.178-0.68-0.285-1.497-0.079-2.14
			c1.237-3.857,0.583-7.565-0.692-11.25c-0.086-0.249-0.303-0.576-0.217-0.741c1.864-3.595,0.132-7.115-0.176-10.664
			c-0.277-3.197,0.497-3.861,3.635-4.001c2.802-0.125,5.619-0.452,8.372-0.983C187.769,11.442,190.696,12.617,192.833,15.815z"/>
	</g>
	<g id="The">
		<path fill-rule="evenodd" clip-rule="evenodd" fill="#B5D0ED" d="M138.995,64.035c-0.106,0.769-0.34,1.829-0.382,2.896
			c-0.071,1.793-0.02,3.59-0.02,5.438c2.943,0.292,5.804,0.392,8.581,0.924c1.526,0.292,2.98,1.206,4.328,2.06
			c0.571,0.362,1.181,1.34,1.101,1.949c-0.59,4.448-1.09,8.94-2.208,13.265c-0.358,1.383-2.327,2.73-3.858,3.343
			c-2.549,1.02-5.34,1.433-8.319,2.174c-0.21,2.357-0.454,5.086-0.715,8.012c3.844,0.264,7.512,0.686,11.184,0.721
			c3.854,0.037,7.534,0.524,10.616,2.962c0.814,0.644,1.493,1.967,1.518,2.996c0.062,2.592,0.423,5.55-0.655,7.699
			c-1.186,2.36-0.071,5.473-3.12,7.326c-2.561,1.556-5.05,2.46-7.927,2.55c-6.677,0.206-13.361,0.616-20.03,0.465
			c-4.945-0.111-5.918-1.428-4.298-6.124c-4.658,0.056-4.745-3.374-4.845-6.584c-0.243-7.804-0.328-15.612-0.502-23.417
			c-0.135-6.039-0.466-12.078-0.43-18.116c0.057-9.578,0.159-19.164,0.613-28.729c0.254-5.361,3.199-7.445,9.682-7.093
			c6.901,0.375,13.796,1.048,20.66,1.869c2.165,0.259,4.343,1.194,6.274,2.258c0.821,0.452,1.521,2.085,1.413,3.089
			c-0.376,3.528,0.294,7.017-1.206,10.652c-1.572,3.811-1.434,4.915-5.599,5.727C147.044,63.088,143.167,63.457,138.995,64.035z"/>
		<path fill-rule="evenodd" clip-rule="evenodd" fill="#B5D0ED" d="M111.364,122.688c-0.282,0.758-0.564,1.516-0.817,2.194
			c-3.476,0.207-6.894,0.582-10.306,0.543c-1.783-0.021-3.552-0.771-3.806-3.054c-0.425-3.806-1.004-7.602-1.242-11.419
			c-0.21-3.374-0.044-6.771-0.044-10.377c-2.515,0-4.634-0.146-6.709,0.089c-0.615,0.07-1.515,1.168-1.593,1.872
			c-0.677,6.056-1.221,12.127-1.752,18.198c-0.317,3.628-3.46,6.556-7.146,6.528c-1.805-0.014-3.611-0.057-5.416-0.091
			c-4.55-0.088-5.8-1.217-5.971-5.77c-0.371-9.893-0.789-19.786-0.933-29.684c-0.1-6.88,0.377-13.768,0.313-20.649
			c-0.064-6.891-0.491-13.778-0.731-20.667c-0.042-1.218-0.236-2.548,0.165-3.631c0.4-1.082,1.389-2.652,2.244-2.736
			c3.449-0.339,6.951-0.094,10.425-0.246c2.418-0.105,3.922,0.992,4.818,3.217c0.813-0.491,1.436-0.867,2.563-1.548
			c1.692,9.512,1.595,18.806,2.347,28.161c0.513-0.154,0.729-0.26,0.952-0.281c5.747-0.533,5.712-0.531,5.647-6.317
			c-0.053-4.708-0.011-9.417-0.011-14.125c0-3.279,0.084-6.56-0.026-9.835c-0.083-2.439,0.961-3.337,3.343-3.317
			c3.73,0.032,7.49-0.432,11.18-0.083c1.269,0.12,2.368,2.045,3.539,3.141c0.056-0.083,0.447-0.662,1.268-1.876
			c0.601,1.573,1.294,2.623,1.374,3.718c0.617,8.461,1.402,16.925,1.571,25.398c0.178,8.953-0.112,17.924-0.495,26.875
			c-0.264,6.177-0.991,12.337-1.6,18.496c-0.205,2.075-0.596,4.145-1.093,6.17c-0.135,0.551-0.964,0.932-1.474,1.391
			C111.753,122.877,111.559,122.783,111.364,122.688z"/>
		<path fill-rule="evenodd" clip-rule="evenodd" fill="#B5D0ED" d="M61.611,41.962c0.325,6.803,0.809,13.59,0.936,20.384
			c0.17,9.1,0.396,18.221-0.016,27.305c-0.401,8.829-1.532,17.627-2.447,26.428c-0.214,2.058-0.32,4.437-1.413,6.022
			c-1.618,2.347-3.795,4.564-7.286,4.103c-1.339-0.177-2.721-0.029-4.084-0.029c-4.284,0-6.197-1.396-6.877-5.752
			c-0.566-3.622-0.739-7.321-0.863-10.993c-0.195-5.778-0.227-11.562-0.284-17.343c-0.061-6.219-0.184-12.44-0.076-18.657
			c0.174-9.958,0.519-19.912,0.776-29.868c0.016-0.602-0.105-1.207-0.176-1.955c-2.014,0-3.911,0.094-5.795-0.016
			c-8.57-0.5-17.138-1.035-25.703-1.61c-2.203-0.148-2.405-1.516-1.957-3.386c0.285-1.188,0.016-2.506,0.276-3.705
			c0.187-0.863,0.651-1.876,1.324-2.375c1.1-0.816,2.47-1.268,3.446-1.739c-1.538-0.248-3.426-0.552-5.872-0.947
			c0.771-1.745,1.433-3.239,2.129-4.814c-0.287-0.026-0.889-0.08-1.831-0.165c0.551-0.997,1.03-1.861,1.267-2.29
			c-0.484-1.231-1.283-2.305-1.228-3.332c0.1-1.842,1.166-3.269,3.239-3.392c4.233-0.25,8.468-0.511,12.706-0.628
			c10.705-0.295,21.412-0.636,32.119-0.711c5.523-0.04,11.05,0.471,16.577,0.686c2.39,0.092,4.793-0.057,7.174,0.119
			c3.533,0.262,7.095,0.491,10.559,1.17c2.082,0.409,4.181,1.392,5.922,2.615c0.968,0.68,1.655,2.366,1.704,3.628
			c0.112,2.896-0.205,5.813-0.441,8.715c-0.052,0.641-0.467,1.265-0.767,1.871c-0.23,0.464-0.799,0.903-0.772,1.325
			c0.083,1.336,1.237,2.643-0.429,3.906c-2.307,1.749-4.575,3.294-7.644,3.5C77.821,40.57,69.85,41.292,61.611,41.962z"/>
	</g>
</g>
</svg>
